<svg aria-hidden="true" fill="currentColor" id="icon-heroicons-chevron-double-down-solid" viewbox="0 0 20 20" xmlns="http://www.w3.org/2000/svg">
 <!-- This work is licensed under the MIT License and is Copyright (c) 2020 Refactoring UI Inc. -->
 <path clip-rule="evenodd" d="M15.707 4.293a1 1 0 010 1.414l-5 5a1 1 0 01-1.414 0l-5-5a1 1 0 011.414-1.414L10 8.586l4.293-4.293a1 1 0 011.414 0zm0 6a1 1 0 010 1.414l-5 5a1 1 0 01-1.414 0l-5-5a1 1 0 111.414-1.414L10 14.586l4.293-4.293a1 1 0 011.414 0z" fill-rule="evenodd">
 </path>
</svg>
