<svg aria-hidden="true" fill="currentColor" id="icon-heroicons-squares-2x2-solid" viewbox="0 0 24 24" xmlns="http://www.w3.org/2000/svg">
 <path clip-rule="evenodd" d="M3 6a3 3 0 013-3h2.25a3 3 0 013 3v2.25a3 3 0 01-3 3H6a3 3 0 01-3-3V6zm9.75 0a3 3 0 013-3H18a3 3 0 013 3v2.25a3 3 0 01-3 3h-2.25a3 3 0 01-3-3V6zM3 15.75a3 3 0 013-3h2.25a3 3 0 013 3V18a3 3 0 01-3 3H6a3 3 0 01-3-3v-2.25zm9.75 0a3 3 0 013-3H18a3 3 0 013 3V18a3 3 0 01-3 3h-2.25a3 3 0 01-3-3v-2.25z" fill-rule="evenodd">
 </path>
</svg>
