<svg aria-hidden="true" fill="currentColor" id="icon-heroicons-switch-vertical-solid" viewbox="0 0 20 20" xmlns="http://www.w3.org/2000/svg">
 <!-- This work is licensed under the MIT License and is Copyright (c) 2020 Refactoring UI Inc. -->
 <path d="M5 12a1 1 0 102 0V6.414l1.293 1.293a1 1 0 001.414-1.414l-3-3a1 1 0 00-1.414 0l-3 3a1 1 0 001.414 1.414L5 6.414V12zM15 8a1 1 0 10-2 0v5.586l-1.293-1.293a1 1 0 00-1.414 1.414l3 3a1 1 0 001.414 0l3-3a1 1 0 00-1.414-1.414L15 13.586V8z">
 </path>
</svg>
