<svg aria-hidden="true" fill="currentColor" id="icon-heroicons-terminal-solid" viewbox="0 0 20 20" xmlns="http://www.w3.org/2000/svg">
 <!-- This work is licensed under the MIT License and is Copyright (c) 2020 Refactoring UI Inc. -->
 <path clip-rule="evenodd" d="M2 5a2 2 0 012-2h12a2 2 0 012 2v10a2 2 0 01-2 2H4a2 2 0 01-2-2V5zm3.293 1.293a1 1 0 011.414 0l3 3a1 1 0 010 1.414l-3 3a1 1 0 01-1.414-1.414L7.586 10 5.293 7.707a1 1 0 010-1.414zM11 12a1 1 0 100 2h3a1 1 0 100-2h-3z" fill-rule="evenodd">
 </path>
</svg>
