<svg aria-hidden="true" fill="none" id="icon-heroicons-cube-transparent-outline" stroke="currentColor" stroke-width="2" viewbox="0 0 24 24" xmlns="http://www.w3.org/2000/svg">
 <!-- This work is licensed under the MIT License and is Copyright (c) 2020 Refactoring UI Inc. -->
 <path d="M14 10l-2 1m0 0l-2-1m2 1v2.5M20 7l-2 1m2-1l-2-1m2 1v2.5M14 4l-2-1-2 1M4 7l2-1M4 7l2 1M4 7v2.5M12 21l-2-1m2 1l2-1m-2 1v-2.5M6 18l-2-1v-2.5M18 18l2-1v-2.5" stroke-linecap="round" stroke-linejoin="round">
 </path>
</svg>
