<svg aria-hidden="true" fill="none" id="icon-heroicons-inbox-in-outline" stroke="currentColor" stroke-width="2" viewbox="0 0 24 24" xmlns="http://www.w3.org/2000/svg">
 <!-- This work is licensed under the MIT License and is Copyright (c) 2020 Refactoring UI Inc. -->
 <path d="M8 4H6a2 2 0 00-2 2v12a2 2 0 002 2h12a2 2 0 002-2V6a2 2 0 00-2-2h-2m-4-1v8m0 0l3-3m-3 3L9 8m-5 5h2.586a1 1 0 01.707.293l2.414 2.414a1 1 0 00.707.293h3.172a1 1 0 00.707-.293l2.414-2.414a1 1 0 01.707-.293H20" stroke-linecap="round" stroke-linejoin="round">
 </path>
</svg>
