<svg aria-hidden="true" fill="none" id="icon-heroicons-list-bullet-outline" stroke="currentColor" stroke-width="1.5" viewbox="0 0 24 24" xmlns="http://www.w3.org/2000/svg">
 <path d="M8.25 6.75h12M8.25 12h12m-12 5.25h12M3.75 6.75h.007v.008H3.75V6.75zm.375 0a.375.375 0 11-.75 0 .375.375 0 01.75 0zM3.75 12h.007v.008H3.75V12zm.375 0a.375.375 0 11-.75 0 .375.375 0 01.75 0zm-.375 5.25h.007v.008H3.75v-.008zm.375 0a.375.375 0 11-.75 0 .375.375 0 01.75 0z" stroke-linecap="round" stroke-linejoin="round">
 </path>
</svg>
