<svg aria-hidden="true" fill="none" id="icon-heroicons-mail-open-outline" stroke="currentColor" stroke-width="2" viewbox="0 0 24 24" xmlns="http://www.w3.org/2000/svg">
 <!-- This work is licensed under the MIT License and is Copyright (c) 2020 Refactoring UI Inc. -->
 <path d="M3 19v-8.93a2 2 0 01.89-1.664l7-4.666a2 2 0 012.22 0l7 4.666A2 2 0 0121 10.07V19M3 19a2 2 0 002 2h14a2 2 0 002-2M3 19l6.75-4.5M21 19l-6.75-4.5M3 10l6.75 4.5M21 10l-6.75 4.5m0 0l-1.14.76a2 2 0 01-2.22 0l-1.14-.76" stroke-linecap="round" stroke-linejoin="round">
 </path>
</svg>
