<svg aria-hidden="true" fill="none" id="icon-heroicons-receipt-tax-outline" stroke="currentColor" stroke-width="2" viewbox="0 0 24 24" xmlns="http://www.w3.org/2000/svg">
 <!-- This work is licensed under the MIT License and is Copyright (c) 2020 Refactoring UI Inc. -->
 <path d="M9 14l6-6m-5.5.5h.01m4.99 5h.01M19 21V5a2 2 0 00-2-2H7a2 2 0 00-2 2v16l3.5-2 3.5 2 3.5-2 3.5 2zM10 8.5a.5.5 0 11-1 0 .5.5 0 011 0zm5 5a.5.5 0 11-1 0 .5.5 0 011 0z" stroke-linecap="round" stroke-linejoin="round">
 </path>
</svg>
