<svg aria-hidden="true" fill="none" id="icon-heroicons-view-grid-outline" stroke="currentColor" stroke-width="2" viewbox="0 0 24 24" xmlns="http://www.w3.org/2000/svg">
 <!-- This work is licensed under the MIT License and is Copyright (c) 2020 Refactoring UI Inc. -->
 <path d="M4 6a2 2 0 012-2h2a2 2 0 012 2v2a2 2 0 01-2 2H6a2 2 0 01-2-2V6zM14 6a2 2 0 012-2h2a2 2 0 012 2v2a2 2 0 01-2 2h-2a2 2 0 01-2-2V6zM4 16a2 2 0 012-2h2a2 2 0 012 2v2a2 2 0 01-2 2H6a2 2 0 01-2-2v-2zM14 16a2 2 0 012-2h2a2 2 0 012 2v2a2 2 0 01-2 2h-2a2 2 0 01-2-2v-2z" stroke-linecap="round" stroke-linejoin="round">
 </path>
</svg>
