<svg aria-hidden="true" fill="currentColor" id="icon-heroicons-chevron-double-right-mini" viewbox="0 0 20 20" xmlns="http://www.w3.org/2000/svg">
 <path clip-rule="evenodd" d="M9.21 16.77a.75.75 0 01.02-1.06L15.168 10 9.23 4.29a.75.75 0 011.04-1.08l6.5 6.25a.75.75 0 010 1.08l-6.5 6.25a.75.75 0 01-1.06-.02z" fill-rule="evenodd">
 </path>
 <path clip-rule="evenodd" d="M3.21 16.77a.75.75 0 01.02-1.06L9.168 10 3.23 4.29a.75.75 0 111.04-1.08l6.5 6.25a.75.75 0 010 1.08l-6.5 6.25a.75.75 0 01-1.06-.02z" fill-rule="evenodd">
 </path>
</svg>
